<svg xmlns="http://www.w3.org/2000/svg" xmlns:xlink="http://www.w3.org/1999/xlink" viewBox="0,0,256,256" width="48px" height="48px"><g fill="#3949ab" fill-rule="nonzero" stroke="none" stroke-width="1" stroke-linecap="butt" stroke-linejoin="miter" stroke-miterlimit="10" stroke-dasharray="" stroke-dashoffset="0" font-family="none" font-weight="none" font-size="none" text-anchor="none" style="mix-blend-mode: normal"><g transform="scale(5.33333,5.33333)"><path d="M24,4c-11.028,0 -20,8.972 -20,20c0,11.028 8.972,20 20,20c11.028,0 20,-8.972 20,-20c0,-11.028 -8.972,-20 -20,-20zM32.5,25.5h-7v7c0,0.829 -0.671,1.5 -1.5,1.5c-0.829,0 -1.5,-0.671 -1.5,-1.5v-7h-7c-0.829,0 -1.5,-0.671 -1.5,-1.5c0,-0.829 0.671,-1.5 1.5,-1.5h7v-7c0,-0.829 0.671,-1.5 1.5,-1.5c0.829,0 1.5,0.671 1.5,1.5v7h7c0.829,0 1.5,0.671 1.5,1.5c0,0.829 -0.671,1.5 -1.5,1.5z"></path></g></g></svg>