<svg xmlns="http://www.w3.org/2000/svg" xmlns:xlink="http://www.w3.org/1999/xlink" viewBox="0,0,256,256" width="48px" height="48px"><g fill="#ffffff" fill-rule="nonzero" stroke="none" stroke-width="1" stroke-linecap="butt" stroke-linejoin="miter" stroke-miterlimit="10" stroke-dasharray="" stroke-dashoffset="0" font-family="none" font-weight="none" font-size="none" text-anchor="none" style="mix-blend-mode: normal"><g transform="scale(5.33333,5.33333)"><path d="M24,4c-11.02201,0 -20,8.978 -20,20c0,11.022 8.97799,20 20,20c11.02201,0 20,-8.978 20,-20c0,-11.022 -8.97799,-20 -20,-20zM24,8c3.70451,0 7.06654,1.29831 9.77344,3.39844l-22.375,22.375c-2.10013,-2.70689 -3.39844,-6.06893 -3.39844,-9.77344c0,-8.86025 7.13975,-16 16,-16zM36.60156,14.22656c2.10013,2.7069 3.39844,6.06893 3.39844,9.77344c0,8.86025 -7.13975,16 -16,16c-3.70451,0 -7.06654,-1.29831 -9.77344,-3.39844z"></path></g></g></svg>