<svg width="505" height="246" viewBox="0 0 505 246" fill="none" xmlns="http://www.w3.org/2000/svg">
<path d="M4.79492 157.293C4.53451 157.033 4.4043 156.544 4.4043 155.828C4.4043 154.917 4.53451 154.461 4.79492 154.461C5.38086 154.461 6.16211 154.396 7.13867 154.266C8.11523 154.07 9.02669 153.81 9.87305 153.484C10.7194 153.159 11.2077 152.833 11.3379 152.508C11.7936 150.88 12.0215 147.951 12.0215 143.719V106.121C12.0215 104.233 11.9564 102.573 11.8262 101.141C11.7611 99.7083 11.5983 98.569 11.3379 97.7227C11.2077 97.332 10.6868 96.974 9.77539 96.6484C8.92904 96.3229 7.98503 96.0625 6.94336 95.8672C5.9668 95.6719 5.18555 95.5742 4.59961 95.5742C4.33919 95.5742 4.20898 95.1836 4.20898 94.4023C4.20898 93.556 4.33919 93.0026 4.59961 92.7422C6.29232 92.8073 8.08268 92.8724 9.9707 92.9375C11.9238 92.9375 14.0072 92.9375 16.2207 92.9375C17.7181 92.9375 19.7363 92.9049 22.2754 92.8398C24.8145 92.7747 27.8743 92.6771 31.4551 92.5469C35.1009 92.4167 38.2585 92.319 40.9277 92.2539C43.6621 92.1888 45.9408 92.1562 47.7637 92.1562C47.8939 93.0677 48.0892 94.1745 48.3496 95.4766C48.61 96.7135 48.9355 98.0807 49.3262 99.5781C49.6517 101.141 49.9121 102.41 50.1074 103.387C50.3678 104.363 50.5306 105.047 50.5957 105.438C50.2702 105.763 49.6842 105.926 48.8379 105.926C47.9915 105.926 47.5358 105.698 47.4707 105.242C46.4941 101.661 45.127 99.3828 43.3691 98.4062C41.6113 97.3646 39.2025 96.8438 36.1426 96.8438H29.5996C23.9355 96.8438 21.071 97.2669 21.0059 98.1133C20.8757 98.8945 20.7454 99.9688 20.6152 101.336C20.5501 102.703 20.5176 104.363 20.5176 106.316V122.234C20.5176 122.625 21.8848 122.82 24.6191 122.82H29.7949C32.7246 122.82 34.8405 122.723 36.1426 122.527C37.4447 122.267 38.3561 121.714 38.877 120.867C39.3978 119.956 39.8861 118.523 40.3418 116.57L40.5371 115.691C40.6022 115.236 41.0905 115.008 42.002 115.008C42.7832 115.008 43.3366 115.171 43.6621 115.496V134.441C43.4017 134.702 42.8809 134.832 42.0996 134.832C41.2533 134.832 40.7324 134.572 40.5371 134.051C40.2767 133.139 40.0488 132.358 39.8535 131.707C39.6582 131.056 39.4954 130.503 39.3652 130.047C39.0397 129.135 38.7793 128.615 38.584 128.484C38.4538 128.354 38.1934 128.159 37.8027 127.898C36.8913 127.378 33.4408 127.117 27.4512 127.117C22.8288 127.117 20.5176 127.41 20.5176 127.996V143.426C20.5176 147.202 20.8105 150.229 21.3965 152.508C21.5267 152.768 22.015 153.061 22.8613 153.387C23.7077 153.712 24.6191 153.973 25.5957 154.168C26.5723 154.363 27.2559 154.461 27.6465 154.461C27.9069 154.461 28.0371 154.949 28.0371 155.926C28.0371 156.316 27.972 156.772 27.8418 157.293C24.5866 157.163 22.015 157.065 20.127 157C18.2389 156.87 17.0345 156.805 16.5137 156.805L4.79492 157.293ZM68.2715 157.684C65.2767 157.684 62.8027 156.902 60.8496 155.34C58.8965 153.712 57.9199 151.303 57.9199 148.113C57.9199 144.207 60.459 140.952 65.5371 138.348C67.7507 137.241 69.9316 136.362 72.0801 135.711C74.2936 135.06 76.5072 134.311 78.7207 133.465C79.3066 133.27 79.5996 132.781 79.5996 132V124.676C79.5996 122.592 78.9486 120.997 77.6465 119.891C76.3444 118.719 74.7819 118.133 72.959 118.133C71.0059 118.133 69.3783 118.816 68.0762 120.184C66.7741 121.486 66.123 123.211 66.123 125.359C66.123 127.638 64.7884 128.777 62.1191 128.777C60.2311 128.777 58.9616 128.159 58.3105 126.922C58.3105 125.555 58.8639 124.155 59.9707 122.723C61.1426 121.225 62.64 119.858 64.4629 118.621C66.2858 117.384 68.2715 116.375 70.4199 115.594C72.6335 114.812 74.8145 114.422 76.9629 114.422C80.5436 114.422 83.1152 115.301 84.6777 117.059C86.2402 118.751 87.0215 121.518 87.0215 125.359V147.918C87.0215 149.285 87.3796 150.424 88.0957 151.336C88.8118 152.247 89.7884 152.703 91.0254 152.703C91.8717 152.703 93.0111 152.247 94.4434 151.336C94.7038 151.336 94.834 151.596 94.834 152.117C94.834 152.964 94.6712 153.647 94.3457 154.168C91.6764 156.447 89.3978 157.586 87.5098 157.586C86.0124 157.586 84.5801 156.967 83.2129 155.73C81.8457 154.493 80.9017 153.191 80.3809 151.824C80.0553 152.085 79.6322 152.443 79.1113 152.898C78.6556 153.289 78.265 153.615 77.9395 153.875C76.5723 154.917 75.0749 155.828 73.4473 156.609C71.8848 157.326 70.1595 157.684 68.2715 157.684ZM71.9824 152.117C73.8053 152.117 75.5306 151.596 77.1582 150.555C78.7858 149.513 79.5996 148.406 79.5996 147.234V137.176C77.9069 137.827 76.2793 138.413 74.7168 138.934C73.2194 139.454 72.015 139.878 71.1035 140.203C69.9316 140.659 68.7923 141.473 67.6855 142.645C66.6439 143.816 66.123 145.151 66.123 146.648C66.123 148.602 66.709 150.001 67.8809 150.848C69.1178 151.694 70.485 152.117 71.9824 152.117ZM98.4473 157.293C98.1868 157.033 98.0566 156.479 98.0566 155.633C98.0566 154.852 98.1868 154.461 98.4473 154.461C98.9681 154.461 99.6842 154.363 100.596 154.168C101.507 153.973 102.354 153.712 103.135 153.387C103.916 153.061 104.339 152.768 104.404 152.508C104.665 151.596 104.827 150.555 104.893 149.383C105.023 148.211 105.088 146.974 105.088 145.672V127.215C105.088 124.741 104.632 122.983 103.721 121.941C103.07 121.16 102.288 120.639 101.377 120.379C100.531 120.118 99.7493 119.988 99.0332 119.988C98.3822 119.923 98.0566 119.826 98.0566 119.695C98.0566 118.133 98.252 117.319 98.6426 117.254C102.093 116.733 104.795 116.277 106.748 115.887C108.766 115.496 110.296 115.171 111.338 114.91L112.607 114.617C112.868 114.552 113.031 114.812 113.096 115.398C113.161 115.919 113.161 116.342 113.096 116.668C112.965 117.579 112.868 118.361 112.803 119.012C112.738 119.663 112.705 120.184 112.705 120.574C112.705 120.835 112.77 120.965 112.9 120.965C112.965 120.965 113.063 120.9 113.193 120.77C114.691 119.207 116.709 117.742 119.248 116.375C121.852 114.943 124.326 114.227 126.67 114.227C129.274 114.227 131.423 114.943 133.115 116.375C134.873 117.742 136.077 119.337 136.729 121.16C141.676 116.538 146.722 114.227 151.865 114.227C160.068 114.227 164.17 120.477 164.17 132.977V143.816C164.17 145.704 164.235 147.365 164.365 148.797C164.495 150.229 164.691 151.466 164.951 152.508C165.081 152.768 165.537 153.061 166.318 153.387C167.1 153.712 167.946 153.973 168.857 154.168C169.769 154.363 170.42 154.461 170.811 154.461C171.006 154.461 171.136 154.852 171.201 155.633C171.266 156.414 171.234 156.967 171.104 157.293L160.654 156.805L150.01 157.293C149.749 157.033 149.619 156.479 149.619 155.633C149.619 154.852 149.749 154.461 150.01 154.461C150.531 154.461 151.247 154.363 152.158 154.168C153.07 153.973 153.916 153.712 154.697 153.387C155.479 153.061 155.902 152.768 155.967 152.508C156.227 151.596 156.39 150.62 156.455 149.578C156.585 148.471 156.65 147.365 156.65 146.258V135.223C156.65 125.197 153.363 120.184 146.787 120.184C145.225 120.184 143.76 120.542 142.393 121.258C141.025 121.909 139.919 122.658 139.072 123.504C138.291 124.35 137.9 125.099 137.9 125.75C138.096 126.987 138.226 128.257 138.291 129.559C138.356 130.796 138.389 132.163 138.389 133.66V144.695C138.389 146.323 138.454 147.788 138.584 149.09C138.714 150.327 138.91 151.466 139.17 152.508C139.3 152.768 139.756 153.061 140.537 153.387C141.318 153.712 142.165 153.973 143.076 154.168C143.988 154.363 144.639 154.461 145.029 154.461C145.225 154.461 145.355 154.852 145.42 155.633C145.485 156.414 145.452 156.967 145.322 157.293L134.873 156.805L124.229 157.293C123.968 157.033 123.838 156.479 123.838 155.633C123.838 154.852 123.968 154.461 124.229 154.461C124.749 154.461 125.465 154.363 126.377 154.168C127.288 153.973 128.135 153.712 128.916 153.387C129.697 153.061 130.12 152.768 130.186 152.508C130.446 151.596 130.609 150.555 130.674 149.383C130.804 148.211 130.869 146.974 130.869 145.672V135.711C130.869 125.359 127.744 120.184 121.494 120.184C120.192 120.184 118.857 120.542 117.49 121.258C116.123 121.909 114.951 122.755 113.975 123.797C113.063 124.773 112.607 125.717 112.607 126.629V143.816C112.607 145.704 112.673 147.365 112.803 148.797C112.933 150.229 113.128 151.466 113.389 152.508C113.519 152.768 113.975 153.061 114.756 153.387C115.537 153.712 116.383 153.973 117.295 154.168C118.206 154.363 118.857 154.461 119.248 154.461C119.443 154.461 119.574 154.852 119.639 155.633C119.704 156.414 119.671 156.967 119.541 157.293L109.092 156.805L98.4473 157.293ZM177.061 157.293C176.8 157.033 176.67 156.479 176.67 155.633C176.67 154.852 176.8 154.461 177.061 154.461C177.581 154.461 178.298 154.363 179.209 154.168C180.12 153.973 180.967 153.712 181.748 153.387C182.529 153.061 182.952 152.768 183.018 152.508C183.278 151.596 183.441 150.555 183.506 149.383C183.636 148.211 183.701 146.974 183.701 145.672V127.215C183.701 124.741 183.245 122.983 182.334 121.941C181.683 121.095 180.902 120.574 179.99 120.379C179.079 120.118 178.298 119.988 177.646 119.988C176.995 119.923 176.67 119.826 176.67 119.695C176.67 118.133 176.865 117.319 177.256 117.254C180.706 116.733 183.343 116.31 185.166 115.984C186.989 115.594 188.617 115.236 190.049 114.91L191.221 114.617C191.481 114.552 191.644 114.812 191.709 115.398C191.774 115.984 191.774 116.408 191.709 116.668C191.579 117.97 191.449 119.207 191.318 120.379C191.253 121.551 191.221 122.658 191.221 123.699V143.816C191.221 145.704 191.286 147.365 191.416 148.797C191.546 150.229 191.742 151.466 192.002 152.508C192.132 152.768 192.588 153.061 193.369 153.387C194.15 153.712 194.997 153.973 195.908 154.168C196.82 154.363 197.471 154.461 197.861 154.461C198.057 154.461 198.187 154.852 198.252 155.633C198.317 156.414 198.285 156.967 198.154 157.293L187.705 156.805L177.061 157.293ZM186.729 103.973C185.426 103.973 184.287 103.484 183.311 102.508C182.334 101.531 181.846 100.392 181.846 99.0898C181.846 97.7227 182.334 96.5833 183.311 95.6719C184.287 94.6953 185.426 94.207 186.729 94.207C188.096 94.207 189.235 94.6953 190.146 95.6719C191.123 96.5833 191.611 97.7227 191.611 99.0898C191.611 100.392 191.123 101.531 190.146 102.508C189.235 103.484 188.096 103.973 186.729 103.973ZM202.939 157.293C202.679 157.033 202.549 156.479 202.549 155.633C202.549 154.852 202.679 154.461 202.939 154.461C203.46 154.461 204.176 154.363 205.088 154.168C205.999 153.973 206.846 153.712 207.627 153.387C208.408 153.061 208.831 152.768 208.896 152.508C209.157 151.596 209.32 150.555 209.385 149.383C209.515 148.211 209.58 146.974 209.58 145.672V103.387C209.58 101.173 209.385 99.0898 208.994 97.1367C208.734 96.0951 207.074 95.5742 204.014 95.5742H203.135C202.744 95.5742 202.549 95.2161 202.549 94.5C202.549 93.4583 202.744 92.9375 203.135 92.9375C207.041 92.4818 209.938 91.9609 211.826 91.375C213.714 90.7891 215.016 90.2682 215.732 89.8125L216.709 89.2266H216.904C217.165 89.2266 217.425 89.4219 217.686 89.8125C217.946 90.138 218.109 90.4635 218.174 90.7891C217.458 92.9375 217.1 95.7695 217.1 99.2852V143.816C217.1 145.704 217.165 147.365 217.295 148.797C217.425 150.229 217.62 151.466 217.881 152.508C218.011 152.768 218.467 153.061 219.248 153.387C220.029 153.712 220.876 153.973 221.787 154.168C222.699 154.363 223.35 154.461 223.74 154.461C223.936 154.461 224.066 154.852 224.131 155.633C224.196 156.414 224.163 156.967 224.033 157.293L213.584 156.805L202.939 157.293ZM237.314 179.168C235.947 179.168 234.938 178.745 234.287 177.898C233.636 177.052 233.311 176.206 233.311 175.359C233.311 173.992 233.766 172.951 234.678 172.234C240.081 172.234 243.662 169.435 245.42 163.836C245.745 162.859 246.136 161.688 246.592 160.32C247.048 158.953 247.406 157.846 247.666 157L233.701 122.82C233.376 122.039 233.05 121.388 232.725 120.867C232.399 120.281 232.074 119.826 231.748 119.5C231.162 118.914 230.251 118.426 229.014 118.035C227.842 117.645 226.898 117.449 226.182 117.449C225.921 117.449 225.791 117.026 225.791 116.18C225.791 115.398 225.921 114.878 226.182 114.617C227.939 114.682 229.665 114.78 231.357 114.91C233.115 114.975 234.906 115.008 236.729 115.008C238.812 115.008 240.602 114.975 242.1 114.91C243.597 114.78 244.964 114.682 246.201 114.617C246.331 115.138 246.396 115.626 246.396 116.082C246.396 116.993 246.266 117.449 246.006 117.449C245.745 117.449 245.257 117.547 244.541 117.742C243.89 117.938 243.239 118.198 242.588 118.523C241.937 118.784 241.546 119.109 241.416 119.5V119.695C241.416 120.802 244.899 129.298 251.865 145.184L259.287 123.797C259.743 122.495 259.971 121.486 259.971 120.77C259.971 119.793 259.45 119.012 258.408 118.426C257.432 117.775 256.097 117.449 254.404 117.449C254.144 117.449 254.014 117.026 254.014 116.18C254.014 115.398 254.144 114.878 254.404 114.617C255.251 114.682 256.52 114.78 258.213 114.91C259.906 115.04 261.533 115.105 263.096 115.105C264.528 115.105 266.09 115.04 267.783 114.91C269.476 114.78 270.745 114.682 271.592 114.617C271.722 115.138 271.787 115.626 271.787 116.082C271.787 116.993 271.657 117.449 271.396 117.449C270.55 117.449 269.411 117.742 267.979 118.328C266.546 118.914 265.57 119.858 265.049 121.16L247.568 168.328C246.071 172.365 244.378 175.164 242.49 176.727C240.602 178.354 238.877 179.168 237.314 179.168ZM305.186 157.586C300.889 157.586 296.852 156.74 293.076 155.047C289.365 153.354 286.077 151.043 283.213 148.113C280.413 145.184 278.2 141.798 276.572 137.957C275.01 134.051 274.229 129.917 274.229 125.555C274.229 120.932 275.042 116.603 276.67 112.566C278.298 108.465 280.576 104.884 283.506 101.824C286.436 98.6992 289.821 96.2578 293.662 94.5C297.568 92.7422 301.768 91.8633 306.26 91.8633C310.101 91.8633 314.007 92.0586 317.979 92.4492C321.95 92.8398 325.954 93.4583 329.99 94.3047L329.795 108.367C329.795 109.344 329.111 109.832 327.744 109.832C327.093 109.832 326.67 109.669 326.475 109.344C326.279 108.497 326.019 107.651 325.693 106.805C325.433 105.893 324.847 104.721 323.936 103.289C322.373 101.01 320.127 99.2201 317.197 97.918C314.333 96.6159 310.785 95.9648 306.553 95.9648C303.363 95.9648 300.368 96.7461 297.568 98.3086C294.769 99.806 292.295 101.857 290.146 104.461C288.063 107.065 286.436 110.027 285.264 113.348C284.092 116.603 283.506 119.988 283.506 123.504C283.506 128.908 284.417 133.758 286.24 138.055C288.063 142.482 290.928 146.16 294.834 149.09C298.805 151.954 303.493 153.387 308.896 153.387C315.342 153.387 320.322 151.499 323.838 147.723C324.88 146.616 325.693 145.314 326.279 143.816C326.865 142.319 327.321 141.017 327.646 139.91C327.972 138.803 328.298 138.25 328.623 138.25C329.014 138.25 329.469 138.315 329.99 138.445C330.576 138.51 331.032 138.641 331.357 138.836L331.846 139.129C331.846 139.52 331.715 140.431 331.455 141.863C331.195 143.296 330.869 144.891 330.479 146.648C330.088 148.341 329.697 149.839 329.307 151.141C328.981 152.443 328.721 153.159 328.525 153.289C323.708 156.154 315.928 157.586 305.186 157.586ZM337.51 157.293C337.249 157.033 337.119 156.479 337.119 155.633C337.119 154.852 337.249 154.461 337.51 154.461C338.031 154.461 338.747 154.363 339.658 154.168C340.57 153.973 341.416 153.712 342.197 153.387C342.979 153.061 343.402 152.768 343.467 152.508C343.727 151.596 343.89 150.555 343.955 149.383C344.085 148.211 344.15 146.974 344.15 145.672V127.215C344.15 124.741 343.695 122.983 342.783 121.941C342.132 121.095 341.351 120.574 340.439 120.379C339.528 120.118 338.747 119.988 338.096 119.988C337.445 119.923 337.119 119.826 337.119 119.695C337.119 118.133 337.314 117.319 337.705 117.254C341.156 116.733 343.792 116.31 345.615 115.984C347.438 115.594 349.066 115.236 350.498 114.91L351.67 114.617C351.93 114.552 352.093 114.812 352.158 115.398C352.223 115.984 352.223 116.408 352.158 116.668C352.028 117.97 351.898 119.207 351.768 120.379C351.702 121.551 351.67 122.658 351.67 123.699V143.816C351.67 145.704 351.735 147.365 351.865 148.797C351.995 150.229 352.191 151.466 352.451 152.508C352.581 152.768 353.037 153.061 353.818 153.387C354.6 153.712 355.446 153.973 356.357 154.168C357.269 154.363 357.92 154.461 358.311 154.461C358.506 154.461 358.636 154.852 358.701 155.633C358.766 156.414 358.734 156.967 358.604 157.293L348.154 156.805L337.51 157.293ZM347.178 103.973C345.876 103.973 344.736 103.484 343.76 102.508C342.783 101.531 342.295 100.392 342.295 99.0898C342.295 97.7227 342.783 96.5833 343.76 95.6719C344.736 94.6953 345.876 94.207 347.178 94.207C348.545 94.207 349.684 94.6953 350.596 95.6719C351.572 96.5833 352.061 97.7227 352.061 99.0898C352.061 100.392 351.572 101.531 350.596 102.508C349.684 103.484 348.545 103.973 347.178 103.973ZM365.146 157.293C364.886 157.033 364.756 156.479 364.756 155.633C364.756 154.852 364.886 154.461 365.146 154.461C365.667 154.461 366.383 154.363 367.295 154.168C368.206 153.973 369.053 153.712 369.834 153.387C370.615 153.061 371.038 152.768 371.104 152.508C371.364 151.596 371.527 150.555 371.592 149.383C371.722 148.211 371.787 146.974 371.787 145.672V127.215C371.787 124.741 371.331 122.983 370.42 121.941C369.769 121.16 368.988 120.639 368.076 120.379C367.23 120.118 366.449 119.988 365.732 119.988C365.081 119.923 364.756 119.826 364.756 119.695C364.756 118.133 364.951 117.319 365.342 117.254C372.438 116.147 376.54 115.431 377.646 115.105L379.307 114.617C379.567 114.552 379.73 114.812 379.795 115.398C379.86 115.984 379.86 116.408 379.795 116.668L379.209 121.551C380.381 119.793 381.976 118.165 383.994 116.668C386.077 115.105 388.128 114.324 390.146 114.324C393.923 114.324 396.462 115.268 397.764 117.156C397.764 119.435 397.406 121.095 396.689 122.137C395.973 123.178 395.094 123.699 394.053 123.699C392.881 123.699 391.807 123.146 390.83 122.039C389.854 120.932 388.519 120.379 386.826 120.379C385.524 120.379 384.287 120.835 383.115 121.746C381.943 122.592 380.999 123.699 380.283 125.066C379.632 126.368 379.307 127.736 379.307 129.168V143.816C379.307 145.704 379.372 147.365 379.502 148.797C379.632 150.229 379.827 151.466 380.088 152.508C380.218 152.768 380.674 153.061 381.455 153.387C382.236 153.712 383.083 153.973 383.994 154.168C384.971 154.363 385.654 154.461 386.045 154.461C386.24 154.461 386.37 154.852 386.436 155.633C386.501 156.414 386.468 156.967 386.338 157.293L375.791 156.805L365.146 157.293ZM421.982 157.586C418.402 157.586 415.114 156.642 412.119 154.754C409.124 152.866 406.715 150.359 404.893 147.234C403.135 144.044 402.256 140.496 402.256 136.59C402.256 132.553 402.972 128.875 404.404 125.555C405.902 122.169 408.05 119.467 410.85 117.449C413.714 115.431 417.165 114.422 421.201 114.422C428.363 114.422 433.311 116.082 436.045 119.402C436.045 123.764 434.84 125.945 432.432 125.945C431.325 125.945 430.479 125.717 429.893 125.262C429.307 124.741 428.558 123.829 427.646 122.527C425.628 119.533 423.219 118.035 420.42 118.035C417.751 118.035 415.309 119.305 413.096 121.844C410.947 124.383 409.873 128.159 409.873 133.172C409.873 138.38 411.143 142.71 413.682 146.16C416.286 149.611 419.867 151.336 424.424 151.336C427.158 151.336 429.437 150.945 431.26 150.164C433.148 149.318 434.515 148.569 435.361 147.918L436.045 147.43C436.436 147.43 436.631 147.853 436.631 148.699C436.631 149.155 436.436 149.741 436.045 150.457C434.743 152.28 432.822 153.94 430.283 155.438C427.744 156.87 424.977 157.586 421.982 157.586ZM440.049 157.293C439.788 157.033 439.658 156.479 439.658 155.633C439.658 154.852 439.788 154.461 440.049 154.461C440.57 154.461 441.286 154.363 442.197 154.168C443.109 153.973 443.955 153.712 444.736 153.387C445.518 153.061 445.941 152.768 446.006 152.508C446.266 151.596 446.429 150.555 446.494 149.383C446.624 148.211 446.689 146.974 446.689 145.672V103.387C446.689 101.173 446.494 99.0898 446.104 97.1367C445.843 96.0951 444.183 95.5742 441.123 95.5742H440.244C439.854 95.5742 439.658 95.2161 439.658 94.5C439.658 93.4583 439.854 92.9375 440.244 92.9375C444.15 92.4818 447.048 91.9609 448.936 91.375C450.824 90.7891 452.126 90.2682 452.842 89.8125L453.818 89.2266H454.014C454.274 89.2266 454.535 89.4219 454.795 89.8125C455.055 90.138 455.218 90.4635 455.283 90.7891C454.567 92.9375 454.209 95.7695 454.209 99.2852V143.816C454.209 145.704 454.274 147.365 454.404 148.797C454.535 150.229 454.73 151.466 454.99 152.508C455.12 152.768 455.576 153.061 456.357 153.387C457.139 153.712 457.985 153.973 458.896 154.168C459.808 154.363 460.459 154.461 460.85 154.461C461.045 154.461 461.175 154.852 461.24 155.633C461.305 156.414 461.273 156.967 461.143 157.293L450.693 156.805L440.049 157.293ZM486.045 157.586C482.464 157.586 479.176 156.642 476.182 154.754C473.187 152.866 470.778 150.359 468.955 147.234C467.197 144.044 466.318 140.496 466.318 136.59C466.318 132.033 467.165 128.094 468.857 124.773C470.55 121.453 472.861 118.914 475.791 117.156C478.721 115.333 482.008 114.422 485.654 114.422C488.649 114.422 491.286 115.008 493.564 116.18C495.843 117.286 497.601 118.719 498.838 120.477C500.01 122.299 500.856 124.155 501.377 126.043C501.963 127.866 502.256 129.689 502.256 131.512C502.256 132.814 502.061 133.628 501.67 133.953C501.279 134.214 500.531 134.344 499.424 134.344H474.814C474.294 134.344 474.033 134.507 474.033 134.832C474.033 137.566 474.587 140.203 475.693 142.742C476.8 145.216 478.428 147.267 480.576 148.895C482.725 150.522 485.361 151.336 488.486 151.336C491.221 151.336 493.499 150.945 495.322 150.164C497.21 149.318 498.577 148.569 499.424 147.918L500.107 147.43C500.498 147.43 500.693 147.853 500.693 148.699C500.693 149.155 500.498 149.741 500.107 150.457C498.805 152.28 496.885 153.94 494.346 155.438C491.807 156.87 489.04 157.586 486.045 157.586ZM474.814 130.242H493.857C494.183 130.242 494.346 129.917 494.346 129.266C494.346 127.833 493.955 126.271 493.174 124.578C492.458 122.82 491.351 121.29 489.854 119.988C488.356 118.686 486.468 118.035 484.189 118.035C482.106 118.035 480.316 118.751 478.818 120.184C477.321 121.551 476.182 123.146 475.4 124.969C474.619 126.727 474.229 128.257 474.229 129.559C474.229 130.014 474.424 130.242 474.814 130.242Z" fill="#838383"/>
<path d="M444.643 164.726C436.055 188.322 420.395 208.692 399.802 223.059C379.208 237.425 354.683 245.087 329.574 244.999C304.465 244.912 279.994 237.078 259.501 222.569C239.009 208.059 223.492 187.58 215.069 163.925" stroke="#838383" stroke-width="2"/>
<path d="M215.357 81.2735C223.945 57.6784 239.605 37.3077 260.198 22.9415C280.792 8.5752 305.317 0.913095 330.426 1.00074C355.535 1.08839 380.006 8.92152 400.499 23.4312C420.991 37.9409 436.508 58.4204 444.931 82.0749" stroke="#838383" stroke-width="2"/>
</svg>
