<svg width="66" height="28" viewBox="0 0 66 28" fill="none" xmlns="http://www.w3.org/2000/svg">
<path d="M55.2698 27.6882C57.0859 28.4409 59.1713 27.7227 60.1449 26.0171L64.5643 18.2831C65.4344 16.7502 65.1789 14.8236 63.936 13.5806C46.8521 -3.5032 19.1479 -3.5032 2.06412 13.5806C0.821156 14.8236 0.565659 16.7502 1.43573 18.2831L5.85515 26.0171C6.8288 27.7227 8.91421 28.4409 10.7303 27.6882L20.1216 23.8212C21.7167 23.1652 22.6973 21.5356 22.5177 19.823L21.9032 13.629C29.064 11.0671 36.9361 11.0671 44.0969 13.6289L43.4754 19.8161C43.3028 21.5356 44.2765 23.1583 45.8716 23.8143L55.2629 27.6813L55.2698 27.6882Z" fill="black"/>
</svg>
